<svg xmlns="http://www.w3.org/2000/svg" width="105" height="20" viewBox="0 0 105 20">
    <g fill="#4B4B4B">
        <path d="M52.135 5.285c2.064 2.066 2.064 5.414 0 7.48-.992.99-2.34 1.542-3.74 1.53-.93 0-1.771-.331-2.502-.995l-.11-.089v5.928l-2.68.845V3.955h2.68v.796l.11-.11c.797-.775 1.705-.885 2.501-.885 1.4-.003 2.745.548 3.74 1.531m-1.128 3.74c0-1.46-1.195-2.68-2.612-2.68-1.416 0-2.611 1.219-2.611 2.68 0 1.435 1.195 2.68 2.611 2.68 1.417 0 2.612-1.245 2.612-2.68M56.185 12.765c-.992-.992-1.55-2.337-1.55-3.74s.558-2.748 1.55-3.74c.991-.99 2.339-1.542 3.74-1.53.932-.002 1.828.356 2.504.998l.11.09v-.888h2.68v10.138h-2.68v-.797l-.11.11c-.797.775-1.705.886-2.5.886-1.4.003-2.745-.548-3.741-1.531m1.126-3.734c0 1.46 1.195 2.68 2.611 2.68 1.417 0 2.612-1.218 2.612-2.68 0-1.436-1.195-2.68-2.612-2.68-1.416 0-2.611 1.244-2.611 2.68M67.892 19.98L70.304 14.115 66.255 3.957 69.22 3.957 71.744 10.264 74.31 3.957 77.254 3.957 70.791 19.98zM91.434 6.756l2.876-1.665c-.318-.558-.24-.423-.53-.95-.306-.557-.19-.776.443-.781 1.845-.012 3.69-.012 5.536 0 .548 0 .68.237.406.721-.913 1.605-1.835 3.204-2.767 4.798-.298.51-.558.509-.869.011-.318-.512-.233-.383-.574-.966L93.089 9.59c.053.12.117.236.191.345.71 1.236 1.027 1.826 1.762 3.048.869 1.448 2.692 1.53 3.726.197.115-.15.22-.307.315-.47 1.741-3.016 3.48-6.034 5.215-9.053.184-.306.322-.637.41-.982.147-.646-.008-1.324-.422-1.84-.414-.518-1.041-.818-1.703-.815C98.85 0 95.119-.003 91.387.03c-1.7.015-2.721 1.717-1.975 3.213.244.487.535.95.81 1.421.513.888.65 1.123 1.217 2.098M83.138 16.075c0-1.12.005-3.311.005-3.311s-.46-.005-1.08-.005c-.62 0-.765-.223-.45-.766.909-1.589 1.827-3.173 2.754-4.752.276-.469.52-.51.82.012.916 1.582 1.835 3.168 2.74 4.76.286.51.157.732-.425.75h-1.114v3.32h3.882c1.674-.025 2.657-1.545 2.025-3.1-.07-.172-.153-.34-.246-.503-1.723-2.998-3.445-5.993-5.168-8.984-.17-.31-.384-.594-.637-.841-.48-.45-1.14-.654-1.79-.556-.65.098-1.22.487-1.547 1.057-1.875 3.19-3.732 6.393-5.57 9.61-.833 1.466.119 3.19 1.774 3.294.539.035 2.84.015 4.029.015M9.076 12.254c-1.238 1.444-2.493 1.93-3.894 1.93-2.85 0-5.159-2.31-5.159-5.16 0-2.848 2.31-5.158 5.159-5.158 1.4 0 2.656.344 3.688 1.582l-1.238 1.03c-.65-.79-1.354-1.014-2.45-1.014C3.517 5.455 2.069 6.6 1.693 8.222c-.375 1.622.423 3.287 1.922 4.01 1.5.723 3.3.311 4.335-.992l1.126 1.014zM28.9 14.184c-2.849 0-5.158-2.31-5.158-5.16 0-2.848 2.31-5.158 5.158-5.158 1.402 0 2.584.742 3.325 1.364l.215.179V4.087h1.642v9.876H32.44V12.64l-.215.18c-.743.622-1.923 1.364-3.325 1.364m0-8.72c-1.442-.008-2.746.854-3.304 2.184-.557 1.33-.257 2.865.76 3.888 1.016 1.022 2.55 1.33 3.882.78 1.333-.55 2.203-1.85 2.203-3.291.004-1.96-1.58-3.553-3.54-3.56M17.955 14.14c-1.275.003-2.49-.546-3.33-1.507-.789-.852-1.262-1.95-1.339-3.109-.017-.15-.024-.303-.02-.455 0-.392.043-.784.128-1.167.193-.893.618-1.72 1.232-2.397.855-.945 2.07-1.485 3.345-1.485 1.275 0 2.49.54 3.346 1.485.62.67 1.045 1.498 1.228 2.393.094.48.133.97.118 1.46H14.84v.175c.229 1.748 1.549 3.073 3.072 3.096.927-.043 1.81-.407 2.5-1.03l1.369.818c-.358.383-.766.715-1.213.988-.722.433-1.626.687-2.613.734m0-8.613c-1.27 0-2.448.916-2.934 2.278l-.015.03-.096.192h6.093l-.118-.233c-.454-1.347-1.634-2.263-2.927-2.263M36.238 13.963V4.087h1.642v1.244l.228-.25c.582-.644 2.297-1.167 3.432-1.216l-.4 1.641c-1.807.052-3.26 1.46-3.26 3.183v5.27l-1.642.004zM10.313.085H11.892000000000001V13.963000000000001H10.313z"/>
    </g>
</svg>
