<svg xmlns="http://www.w3.org/2000/svg" width="72" height="16" viewBox="0 0 72 16">
    <g fill="#4B4B4B">
        <path d="M12.502 0H9.004c0 2.87-1.318 5.49-3.608 7.216L4.016 8.25l5.364 7.31h4.408l-4.94-6.73C11.183 6.51 12.501 3.373 12.501 0zM0 0H3.576V15.561H0zM14.824 0H18.197V15.561H14.824zM47.78 4.502c-1.286 0-2.51.392-3.325 1.506V4.8h-3.2v10.76h3.247V9.915c0-1.632 1.098-2.432 2.416-2.432 1.411 0 2.227.847 2.227 2.416v5.678h3.216V8.722c0-2.51-1.992-4.22-4.58-4.22zM28.392 4.8v.69c-.91-.627-2.008-.988-3.2-.988-3.137 0-5.678 2.541-5.678 5.678 0 3.138 2.54 5.679 5.678 5.679 1.192 0 2.29-.361 3.2-.988v.69h3.216V4.8h-3.216zm-2.933 8.141c-1.616 0-2.918-1.239-2.918-2.76 0-1.522 1.302-2.761 2.918-2.761s2.917 1.239 2.917 2.76c0 1.522-1.301 2.761-2.917 2.761zM36.596 6.196V4.8h-3.294v10.76h3.31v-5.019c0-1.694 1.835-2.604 3.106-2.604h.031V4.8c-1.302 0-2.51.565-3.153 1.396zM62.369 4.8v.69c-.91-.627-2.008-.988-3.2-.988-3.138 0-5.679 2.541-5.679 5.678 0 3.138 2.541 5.679 5.679 5.679 1.192 0 2.29-.361 3.2-.988v.69h3.215V4.8H62.37zm-2.934 8.141c-1.615 0-2.917-1.239-2.917-2.76 0-1.522 1.302-2.761 2.917-2.761 1.616 0 2.918 1.239 2.918 2.76.016 1.522-1.302 2.761-2.918 2.761z"/>
        <g>
            <path d="M1.098.722C1.098.565.988.47.816.47H.518v.815h.14V.988h.158l.125.298h.157L.957.956c.094-.046.141-.125.141-.234zM.816.847H.659v-.25h.157c.094 0 .14.046.14.125 0 .078-.03.125-.14.125z" transform="translate(66.98 4.392)"/>
            <path d="M.769.125C.345.125 0 .471 0 .895c.016.423.345.768.769.768.423 0 .768-.345.768-.769 0-.423-.345-.769-.768-.769zm0 1.397c-.345 0-.612-.283-.612-.628C.157.55.439.267.769.267c.345 0 .611.282.611.627 0 .345-.282.628-.611.628z" transform="translate(66.98 4.392)"/>
        </g>
        <path d="M69.02 11.749c-1.114 0-2.024.91-2.024 2.024 0 1.113.91 2.023 2.024 2.023 1.113 0 2.023-.91 2.023-2.023 0-1.13-.91-2.024-2.023-2.024z"/>
    </g>
</svg>
