<svg xmlns="http://www.w3.org/2000/svg" width="93" height="22" viewBox="0 0 93 22">
    <g fill="none" fill-rule="evenodd">
        <path fill="#F5F6F6" fill-rule="nonzero" d="M1.842.09C2.07.068 2.3.057 2.53.059h11.63c.583 0 1.173-.008 1.763 0 .992.016 1.902.967 1.878 1.96v13.925s-.14 1.386-1.82 1.53h-4.205L9.53 19.817c-.204.164-.494.164-.697 0l-2.295-2.33h-4.7s-1.63-.025-1.787-1.87V1.92c0-.59.37-1.14.828-1.475.283-.2.614-.322.96-.353" transform="translate(1 1)"/>
        <path stroke="#505150" stroke-width=".5" d="M1.842.09C2.07.068 2.3.057 2.53.059h11.63c.583 0 1.173-.008 1.763 0 .992.016 1.902.967 1.878 1.96v13.925s-.14 1.386-1.82 1.53h-4.205L9.53 19.817c-.204.164-.494.164-.697 0l-2.295-2.33h-4.7s-1.63-.025-1.787-1.87V1.92c0-.59.37-1.14.828-1.475.283-.2.614-.322.96-.353h.003z" transform="translate(1 1)"/>
        <path fill="#0C7AB7" fill-rule="nonzero" d="M16.366 6.722l-5.197-.5-2.065-4.205L7.07 6.33l-5.238.352 4.098 3.418-1.212 5.092 4.377-2.565 4.525 2.565-1.279-5.057 4.024-3.412zm-4.164.14c-2.279 2.032-3.311 4.63-3.311 4.63-.11.5-.394.32-.394.32-.262-.647-.721-1.213-1.188-1.738-.218-.246-.918-.705-.546-1.082.451-.466 1.508.689 1.705.468 1.669-1.885 3.02-2.885 3.02-2.885.968-.219.713.286.713.286" transform="translate(1 1)"/>
        <path fill="#505050" fill-rule="nonzero" d="M30.481 3.451L30.481 5.362 27.251 5.362 27.251 14.214 24.98 14.214 24.98 5.362 21.734 5.362 21.734 3.451zM35.251 6.074c.024 0 .091.01.18.01v2.13c-.13-.016-.245-.025-.351-.033-.106-.007-.19-.008-.246-.008-.837 0-1.402.27-1.69.82-.164.303-.237.779-.237 1.42v3.803H30.81V6.255H32.8V7.64c.32-.533.607-.894.844-1.092.393-.328.901-.492 1.524-.492.027.007.055.013.082.016M38.736 6.255v4.795c0 .45.056.795.163 1.024.188.403.557.607 1.115.607.713 0 1.196-.286 1.46-.86.138-.312.204-.722.204-1.238V6.255h2.114v7.96h-2.03V13.09l-.148.218c-.075.121-.169.229-.278.32-.272.26-.593.463-.944.598-.346.115-.708.17-1.073.164-1.18 0-1.975-.426-2.377-1.27-.23-.468-.344-1.156-.344-2.066V6.263h2.14l-.002-.008zM47.432 11.673c.04.369.138.63.286.787.262.279.738.418 1.443.418.337.015.673-.046.983-.18.223-.09.367-.308.362-.547.009-.22-.105-.425-.295-.534-.197-.122-.927-.327-2.18-.63-.911-.219-1.55-.497-1.918-.836-.37-.328-.559-.812-.559-1.435-.005-.729.313-1.422.869-1.893.582-.525 1.393-.796 2.451-.796 1 0 1.811.197 2.443.6.632.401.992 1.081 1.082 2.056h-2.09c-.019-.23-.098-.45-.23-.64-.229-.278-.623-.426-1.172-.426-.459 0-.78.075-.976.214-.176.106-.284.295-.286.5-.01.219.113.422.311.516.206.11.935.304 2.18.574.828.196 1.46.492 1.87.885.405.391.628.934.615 1.497.018.747-.308 1.46-.885 1.935-.59.5-1.501.745-2.74.745-1.238 0-2.185-.262-2.786-.794-.588-.503-.919-1.244-.902-2.017l2.124.001zM53.333 7.812V6.329h1.115V4.107h2.068V6.33h1.295v1.483h-1.295v4.21c0 .328.041.532.123.606.082.075.336.123.765.123h.205c.074 0 .14-.008.205-.008v1.558l-.991.032c-.984.033-1.665-.14-2.025-.508-.237-.238-.352-.606-.352-1.107V7.812h-1.113z" transform="translate(1 1)"/>
        <path fill="#0C7AB7" fill-rule="nonzero" d="M60.949 10.894c.073.492.204.861.41 1.107.377.443 1.016.664 1.918.663.446.014.89-.044 1.319-.171.639-.219.967-.64.967-1.246.008-.343-.175-.662-.476-.828-.311-.188-.81-.361-1.5-.5l-1.17-.255c-1.147-.253-1.934-.524-2.368-.827-.73-.5-1.093-1.27-1.093-2.328-.021-.92.37-1.802 1.066-2.404.714-.64 1.748-.959 3.14-.959 1.147 0 2.13.303 2.95.902.82.599 1.238 1.475 1.28 2.614h-2.173c-.04-.647-.328-1.106-.875-1.377-.42-.192-.881-.285-1.344-.27-.599 0-1.073.115-1.42.352-.34.208-.542.58-.534.976-.013.366.194.705.526.86.218.124.703.279 1.433.437l1.893.438c.829.196 1.452.459 1.87.779.647.508.966 1.237.966 2.197.016.95-.407 1.854-1.147 2.45-.765.648-1.835.976-3.229.976-1.42 0-2.54-.32-3.353-.96-.812-.64-1.22-1.498-1.22-2.626h2.164zM75.874 7.104c.648.688.976 1.697.976 3.025 0 1.401-.32 2.467-.95 3.204-.609.724-1.514 1.132-2.46 1.107-.639 0-1.172-.156-1.59-.475-.268-.217-.498-.477-.68-.77v4.153h-2.066V6.255h2v1.177c.197-.309.44-.585.721-.82.48-.358 1.066-.546 1.665-.533.903-.006 1.767.365 2.384 1.025m-1.606 1.5c-.287-.475-.746-.705-1.377-.705-.765 0-1.287.361-1.574 1.074-.16.463-.235.952-.219 1.442 0 .927.246 1.574.747 1.951.303.223.673.338 1.049.328.59 0 1.033-.219 1.344-.672.312-.454.46-1.04.46-1.787.012-.573-.136-1.137-.427-1.63M84.98 13.247c-.67.827-1.696 1.246-3.065 1.246-1.37 0-2.393-.419-3.06-1.246-.668-.827-1.01-1.828-1.01-2.992-.021-1.082.336-2.138 1.01-2.984.672-.844 1.696-1.262 3.06-1.262s2.394.418 3.065 1.262c.674.846 1.031 1.902 1.01 2.984 0 1.164-.336 2.156-1.01 2.992m-1.672-1.156c.328-.437.492-1.052.492-1.844s-.164-1.407-.492-1.845c-.328-.426-.794-.647-1.409-.647-.614 0-1.082.219-1.41.647-.327.429-.491 1.042-.491 1.845 0 .803.164 1.41.492 1.844.327.434.802.648 1.41.648.607 0 1.08-.213 1.408-.648M86.661 7.812V6.329h1.112V4.107h2.065V6.33h1.295v1.483h-1.291v4.21c0 .328.041.532.123.606.082.075.336.123.765.123h.204c.075 0 .14-.008.206-.008v1.558l-.992.032c-.984.033-1.664-.14-2.025-.508-.237-.238-.353-.606-.353-1.107V7.812h-1.109z" transform="translate(1 1)"/>
    </g>
</svg>
