<svg id="Layer_1" data-name="Layer 1" xmlns="http://www.w3.org/2000/svg" viewBox="0 0 841.89 356.76"><defs><style>.cls-1{fill:#333332;}</style></defs><path class="cls-1" d="M801.81,118.75v50.89a48.58,48.58,0,0,1-35.42,46.7v8.75H740.26v-8.75a48.58,48.58,0,0,1-35.43-46.7V118.75h25.89v50.89a22.52,22.52,0,0,0,45,0V118.75Z"/><rect class="cls-1" x="740.1" y="233.76" width="26.12" height="26.12"/><path class="cls-1" d="M643.2,192.1c-14.08,0-26.08-11.72-26.08-25.81a25.83,25.83,0,0,1,26.08-26.08,26.16,26.16,0,0,1,26.06,25.13c0,.31,0,.62,0,.95a25.33,25.33,0,0,1-.48,5,26,26,0,0,1-25.6,20.86m51.71-26.76a51.81,51.81,0,1,0-26.11,45.81v4.3h26.13v-49.2c0-.31,0-.62,0-.91"/><rect class="cls-1" x="150.56" y="233.77" width="26.12" height="26.12"/><path class="cls-1" d="M202.28,192a25.95,25.95,0,1,1,26.07-25.81c0,14.08-12,25.81-26.07,25.81m0-77.75a51.89,51.89,0,0,0-51.72,51.81v59h26.12v-14a51.81,51.81,0,1,0,25.6-96.8"/><rect class="cls-1" x="480.04" y="233.77" width="26.12" height="26.12"/><path class="cls-1" d="M531.76,192a25.95,25.95,0,1,1,26.07-25.81c0,14.08-12,25.81-26.07,25.81m0-77.75A51.89,51.89,0,0,0,480,166.08v59h26.12v-14a51.81,51.81,0,1,0,25.6-96.8"/><path class="cls-1" d="M117.83,166.16a25.95,25.95,0,1,1-25.95-25.94,26,26,0,0,1,26,25.94m26,0a51.9,51.9,0,1,0-51.9,51.9,52.05,52.05,0,0,0,51.9-51.9"/><path class="cls-1" d="M421.69,114.27a48.59,48.59,0,0,0-48.54,48.53v52.58h26.09V162.8a22.54,22.54,0,0,1,45.07,0v52.58h25.91V162.8a48.58,48.58,0,0,0-48.53-48.53"/><path class="cls-1" d="M289.38,153.92l.36-.64a26.55,26.55,0,0,1,46.58,0l.35.64Zm74-.32h0A51.89,51.89,0,1,0,313,218a51.25,51.25,0,0,0,31.38-10.65l-18.18-18.18a26.51,26.51,0,0,1-35.42-8.49l-.44-.68H363c1.23-4.47,2.92-16.67.38-26.37"/></svg>