<svg xmlns="http://www.w3.org/2000/svg" viewBox="0 0 600 81.05"><defs><style>.cls-1{fill:#1d1d1b;}</style></defs><title>StudentBeansLogo_Black</title><g id="Layer_2" data-name="Layer 2"><g id="outline"><path class="cls-1" d="M176.05,39.07c-6.18,0-9.35,5.74-9.35,11.83,0,4.45,2.57,7.47,6.77,7.47s8-3.18,9.09-8.68l1.11-5.21C182.4,41.22,180.34,39.07,176.05,39.07Z"/><path class="cls-1" d="M422.14,36.85c-4.88,0-8.75,3.33-10.88,7.79,1.37.1,2.66,0,3.77,0,9.59,0,12.42-1.8,12.42-4.37C427.46,38.56,425.76,36.85,422.14,36.85Z"/><path class="cls-1" d="M468.89,39.07c-6.17,0-10,6-10,12.26,0,4.2,2.66,7,6.52,7,4.63,0,8.5-3.45,9.69-8.84l1.12-5.15C474.89,41.22,472.66,39.07,468.89,39.07Z"/><path class="cls-1" d="M234.89,40.27c0-1.7-1.71-3.42-5.31-3.42-4.89,0-8.75,3.33-10.89,7.79,1.37.1,2.65,0,3.77,0C232.06,44.64,234.89,42.84,234.89,40.27Z"/><path class="cls-1" d="M368.7,26.8h-6.17L360.39,37h6.94c5.41,0,8.32-2.06,8.32-6.27C375.57,28.09,373.25,26.8,368.7,26.8Z"/><path class="cls-1" d="M600,37.28a16.61,16.61,0,0,0-5-11.79C589.6,20.08,581,17,571.4,17s-16.3,3-20.87,7.46a22.12,22.12,0,0,0-17.32-7.63,27,27,0,0,0-13.71,3.66,19.22,19.22,0,0,0-10.55-3,18.39,18.39,0,0,0-9.62,2.23,20.4,20.4,0,0,0-9.16-2.23,22.7,22.7,0,0,0-11.29,2.7A25.54,25.54,0,0,0,466,16.8a30.2,30.2,0,0,0-20.9,8.69c-4.43-5.09-11.64-8.69-22.15-8.69a37.64,37.64,0,0,0-20.34,5.77c-1.87-9.18-9.86-17.68-27.87-17.68H357c-7.85,0-14,3.42-17.46,9.35l-2.21-2.93c-3.87-5.16-11.46-5.56-13.68-5.56-9.76,0-16.41,4.3-19.86,12.84a16.19,16.19,0,0,0-5.39,3A22.78,22.78,0,0,0,284,16.8a27,27,0,0,0-13.72,3.66,19.31,19.31,0,0,0-10.56-3c-5.29,0-9.17,1.47-11.65,4.08-4.37-2.92-10.21-4.79-17.77-4.79a38.72,38.72,0,0,0-15,3l0-.18c1.42-6.75-.76-11.22-2.84-13.78S206.18,0,198.7,0H197c-6.29,0-14.36,2.7-17.16,15.61l-.43,2a28,28,0,0,0-6.85-.86A28.43,28.43,0,0,0,155,22.86c-2.27-2.57-6.29-5.36-13.38-5.36h-1.71c-4.21,0-9.18,1.18-12.82,5.69-2.2-2.63-6.34-5.69-13.69-5.69h-1.71a16.81,16.81,0,0,0-9.32,2.62,13.69,13.69,0,0,0-1.66-1l1-3.94L98.82,11.3C95,6.14,87.37,5.74,85.13,5.74c-7.6,0-13.29,2.64-17.08,7.86-.31-.39-.56-.79-.91-1.15C61.4,6.73,52.38,3.7,41,3.7,17.9,3.7,7.55,18.22,7.55,32.64a24.54,24.54,0,0,0,1.81,9.53C4.35,45.26,0,51.43,0,58.11c0,5,2,9.74,6.11,14,4.18,4.08,12.28,8.94,27.13,8.94,12.81,0,21.52-3.87,27-9.44a18.57,18.57,0,0,0,1.17,1.61c2.91,3.57,8.55,7.83,18.89,7.83C89,81.05,94.14,78,97,75.27c3.1,2.92,7.93,5.7,15.5,5.7a26.84,26.84,0,0,0,13.27-3.43,21.66,21.66,0,0,0,12.11,3.35,19.73,19.73,0,0,0,13.83-5.05,25.32,25.32,0,0,0,15.41,5.05,24.83,24.83,0,0,0,12.27-3.2,21.41,21.41,0,0,0,11.75,3.2c6.63,0,11.32-2.41,14.33-5.48,5.24,3.53,12,5.57,20,5.57,7,0,13.14-1.52,17.9-4.32a18.44,18.44,0,0,0,11.52,3.64h1.71c4.39,0,9.63-1.33,13.29-6.38,3.05,4,8.25,7,16.3,7,7.43,0,12.06-2.95,14.64-5.42.2-.2.36-.43.55-.62,3.2,3.11,8.58,6.21,17.41,6.21,7.95,0,12.87-2.59,15.86-5.11,2.63,2.09,6.57,3.91,12.52,3.91h18.44c14.05,0,22.64-3.55,27.86-8.37C399,77.47,407.42,81,418,81c9.43,0,17.37-2.74,22.37-7.71a24.32,24.32,0,0,0,18.11,7.63,26.45,26.45,0,0,0,13-3.34,21.68,21.68,0,0,0,12.08,3.34A20.93,20.93,0,0,0,494.68,78a19.41,19.41,0,0,0,9.39,2.32h1.7c4.41,0,9.64-1.33,13.3-6.39,3.06,4.05,8.25,7,16.29,7a20.56,20.56,0,0,0,13.48-4.48c5.18,2.82,11.75,4.39,19.29,4.39,21,0,28.52-12.91,28.52-24a20.71,20.71,0,0,0-1.37-7.63A17.32,17.32,0,0,0,600,37.28ZM56.14,34.69c-3.61-4.8-9.52-8.13-15.27-8.13-4.37,0-6.6,1.88-6.6,4.37,0,2.66,4,3.6,9.26,5.56,7.3,2.66,14.93,6.45,14.93,15.36,0,11-7.72,19.48-25.22,19.48-9.95,0-16.64-2.59-20.32-6.19a10.19,10.19,0,0,1-3.18-7c0-5.23,5.84-8.75,6.26-8.23,3.6,4.45,10.63,8.31,17.07,8.31,4.38,0,6.43-1.62,6.43-4.55,0-2.48-3.6-3.42-8.32-5.13-6.52-2.49-13.9-6.27-13.9-15.87,0-9.86,7-19.22,23.76-19.22,9.27,0,15.7,2.41,19.21,5.92A9.09,9.09,0,0,1,63,25.7C63,31.69,56.57,35.2,56.14,34.69Zm41.43,3.7c-1.11,1-2.31,1.63-5.66,1.63H86.07L83.16,53.91c-.77,3.6.6,5.23,3.09,5.23a7.79,7.79,0,0,0,4.8-1.88c.34-.34,2.4,1.29,2.4,4.38a8.36,8.36,0,0,1-2.66,6.17c-2.23,2.31-5.83,3.53-10.46,3.53-10.89,0-15.35-6.27-13.21-16.65L70.21,40h-.95c-3.6,0-5.74-1.8-5.74-4.45,0-1.37.6-4.73,2.23-6.35,1.11-1,2.31-1.64,5.66-1.64h1.46l.26-1.29c1.54-7.46,4.71-10.8,12-10.8,3.6,0,6.18,1.37,6,2L89,27.57h4.8c3.94,0,6,1.8,6,4.46C99.8,33.4,99.2,36.75,97.57,38.38Zm51.21-3.27-5,23.43c-1.11,5.06-.26,7,2.66,8,.17.08-1.2,4.63-8.57,4.63-6.69,0-9.87-3.34-10.21-8.39C124,68,119.11,71.23,112.5,71.23c-10.13,0-14.42-7.54-11.93-19.47l3.52-16.64c1.29-6,3.43-7.89,7.64-7.89h1.71c4.38,0,8.41,1.8,7.12,7.89L117.21,50c-1.12,4.63.51,7.82,4.63,7.82,2.83,0,4.63-1.22,6.43-3.69l4.12-19.05c1.2-6,3.34-7.89,7.55-7.89h1.71C146.12,27.23,150.15,29,148.78,35.12Zm42.37,36c-6.78,0-9.78-3.51-10.12-8.66-2.75,5.15-7.55,8.66-13.9,8.66-9.26,0-16.21-6.68-16.21-17.93,0-13.63,8.4-26.66,21.62-26.66,5.31,0,10.64,2.31,13.46,6.95l3.35-15.87c1.28-5.92,3.43-7.9,7.63-7.9h1.72c4.38,0,8.4,1.81,7.12,7.9l-8.66,40.91c-1.2,5.14-.34,7,2.66,8C199.89,66.59,198.61,71.14,191.14,71.14ZM225.72,60a14.49,14.49,0,0,0,11.41-5.66c.08-.08,6.52.77,6.52,5.84A7.59,7.59,0,0,1,241,66.35c-2.75,2.75-8,4.88-15.53,4.88-15.09,0-21.87-8-21.87-18.7,0-15.52,11.93-26,26.76-26,11.66,0,17.84,5.31,17.84,13.28,0,8.75-5.57,14.07-24.36,14.07-2.14,0-4.37,0-6.86-.16C217.48,57.86,220.48,60,225.72,60ZM296,65.31c.18,0-1.37,5.84-9.78,5.84-7.12,0-10.12-3.34-10.12-8.39,0-2.51.6-5,2-10a37.76,37.76,0,0,0,1.63-7.8c0-3.17-1.72-5.15-5-5.15-2.82,0-4.63,1.2-6.43,3.7l-4.12,19c-1.2,6-3.34,8-7.54,8h-1.71c-4.47,0-8.5-1.87-7.12-8L255,28.27c.08-.35,2.14-1,4.8-1,4.21,0,8.32,2.23,8.84,8.07,3.68-5.31,8.57-8.74,15.44-8.74C292.27,26.55,297,32,297,39.84c0,3-.85,6.78-2.4,12.27-1.12,4-2,7.38-2,9.09C292.62,63.69,293.73,64.8,296,65.31ZM336,38.38c-1.11,1-2.31,1.63-5.66,1.63h-5.82l-2.92,13.89c-.77,3.6.6,5.23,3.09,5.23a7.82,7.82,0,0,0,4.81-1.88c.34-.34,2.39,1.29,2.39,4.38a8.36,8.36,0,0,1-2.66,6.17c-2.23,2.31-5.82,3.53-10.45,3.53-10.89,0-15.36-6.27-13.21-16.65L308.67,40h-.95c-3.6,0-5.74-1.8-5.74-4.45,0-1.37.6-4.73,2.23-6.35,1.11-1,2.31-1.64,5.66-1.64h1.47l.25-1.29c1.54-7.46,4.71-10.8,12-10.8,3.6,0,6.17,1.37,6,2l-2.15,10.11h4.81c3.94,0,6,1.8,6,4.46C338.25,33.4,337.66,36.75,336,38.38Zm55.41,14.15c0,10.55-6.68,17.57-25.82,17.57H347.18c-6.86,0-10-3.42-8.4-10.87l7.71-36.12c1.21-6,4.91-8.48,10.47-8.48h17.76c12.09,0,18.62,4.29,18.62,12.36,0,7-3.18,11.83-11.93,14.05C388.09,42.84,391.43,47,391.43,52.54Zm25,1.37c-2.14,0-4.37,0-6.85-.16.5,4.12,3.51,6.25,8.75,6.25a14.51,14.51,0,0,0,11.41-5.66c.08-.08,6.51.77,6.51,5.84a7.58,7.58,0,0,1-2.66,6.17c-2.74,2.75-8,4.88-15.52,4.88-15.09,0-21.87-8-21.87-18.7,0-15.52,11.92-26,26.77-26,11.66,0,17.84,5.31,17.84,13.28C440.76,48.58,435.18,53.91,416.39,53.91Zm73.16,4.64c-1.12,5.06-.34,7,2.66,8,.09.08-1.2,4.63-8.66,4.63-6.86,0-9.94-3.6-10.21-8.82a16.74,16.74,0,0,1-14.83,8.82c-9.09,0-15.44-6.6-15.44-17,0-14,9.27-27.62,22.91-27.62,5.39,0,10.63,2.47,13,7.46,2.23-4.8,5.66-6.78,11.15-6.78,3.17,0,5.74,1.37,5.66,2Zm55.59,6.77c.17,0-1.37,5.84-9.79,5.84-7.12,0-10.12-3.34-10.12-8.39,0-2.51.61-5,2-10a38,38,0,0,0,1.63-7.8c0-3.17-1.71-5.15-5-5.15-2.83,0-4.63,1.2-6.43,3.7l-4.11,19c-1.21,6-3.35,8-7.56,8h-1.7c-4.48,0-8.5-1.87-7.13-8l7.21-34.3c.08-.35,2.15-1,4.81-1,4.2,0,8.32,2.23,8.83,8.07,3.69-5.31,8.57-8.74,15.43-8.74,8.25,0,13,5.41,13,13.28,0,3-.84,6.78-2.39,12.27-1.12,4-2,7.38-2,9.09C541.8,63.69,542.92,64.8,545.15,65.31Zm39.71-20.75c-2.92-3.68-7.54-6.85-12.35-6.85-2.75,0-4.12,1.11-4.12,2.47s1.54,2,5.75,3.7c6.77,2.66,12.77,5.56,12.77,12.95,0,8.48-6.43,14.24-18.77,14.24-8.75,0-14.85-2.39-18-5.57A8,8,0,0,1,547.46,60c0-4.46,4.46-7.11,4.81-6.68C555.52,56.82,561.11,60,566,60c2.66,0,3.95-.94,3.95-2.41,0-1.29-1.46-2-4.63-3.25-5.91-2.39-12.09-4.9-12.09-12.69,0-8.76,6.25-14.93,18.19-14.93,7.29,0,13.28,2.23,16.72,5.66a6.81,6.81,0,0,1,2.15,4.9C590.27,42.41,585.21,44.91,584.86,44.55Z"/><path class="cls-1" d="M366.65,47h-8.32L356,57.86h9c6.35,0,9.09-2,9.09-6.7C374.11,48.33,371.63,47,366.65,47Z"/></g></g></svg>